<?xml version="1.0" standalone="no"?>
<!DOCTYPE svg PUBLIC "-//W3C//DTD SVG 20010904//EN"
 "http://www.w3.org/TR/2001/REC-SVG-20010904/DTD/svg10.dtd">
<svg version="1.0" xmlns="http://www.w3.org/2000/svg"
 width="1178.000000pt" height="252.000000pt" viewBox="0 0 1178.000000 252.000000"
 preserveAspectRatio="xMidYMid meet">
<metadata>
Created by potrace 1.16, written by Peter Selinger 2001-2019
</metadata>
<g transform="translate(0.000000,252.000000) scale(0.100000,-0.100000)"
fill="#000000" stroke="none">
<path d="M0 1260 l0 -1260 5890 0 5890 0 0 1260 0 1260 -5890 0 -5890 0 0
-1260z m4355 318 c93 -49 148 -129 164 -240 34 -252 -117 -422 -361 -406 -95
6 -165 37 -221 97 -63 67 -82 124 -82 246 0 141 36 223 125 281 69 46 107 54
220 51 90 -3 112 -7 155 -29z m875 9 l65 -23 3 -82 c2 -53 -1 -82 -8 -82 -6 0
-36 17 -66 37 -48 32 -66 38 -123 41 -56 3 -71 0 -100 -20 -49 -33 -69 -65
-83 -130 -23 -111 16 -213 96 -249 72 -32 141 -21 225 36 28 19 53 35 56 35 3
0 5 -37 5 -83 l0 -83 -62 -23 c-213 -77 -425 -2 -485 173 -23 69 -23 204 0
273 30 87 114 165 207 194 14 4 66 8 115 8 69 0 105 -5 155 -22z m3038 -1 l52
-17 0 -80 c0 -44 -3 -79 -7 -77 -113 57 -147 69 -204 74 -79 7 -132 -16 -137
-57 -4 -35 13 -46 94 -65 190 -44 252 -81 274 -163 43 -161 -111 -283 -340
-268 -84 6 -183 29 -207 49 -8 7 -13 37 -13 84 0 83 9 91 61 53 49 -34 133
-59 203 -59 77 0 114 14 123 48 9 39 -23 61 -123 83 -165 37 -239 90 -251 178
-15 108 48 190 177 232 41 14 240 4 298 -15z m-4795 3 c54 -15 114 -72 128
-122 22 -82 -8 -163 -80 -215 l-40 -29 104 -134 c58 -74 105 -137 105 -141 0
-5 -45 -8 -100 -8 l-101 0 -87 120 -87 119 -42 1 -43 0 0 -120 0 -121 -82 3
-83 3 -3 328 -2 327 187 0 c104 0 205 -5 226 -11z m2239 -134 l3 -145 114 145
114 145 100 0 100 0 -20 -22 c-122 -138 -233 -280 -227 -290 4 -7 63 -86 131
-175 68 -89 123 -164 123 -167 0 -3 -46 -6 -102 -6 l-103 1 -85 114 c-47 64
-91 123 -98 133 -12 16 -14 15 -32 -8 -17 -21 -20 -42 -20 -132 l0 -108 -85 0
-85 0 0 330 0 330 85 0 84 0 3 -145z m1118 80 l0 -65 -150 0 -150 0 0 -55 0
-55 140 0 140 0 0 -65 0 -65 -140 0 -140 0 0 -80 0 -80 150 0 150 0 0 -65 0
-65 -237 2 -238 3 -3 328 -2 327 240 0 240 0 0 -65z m770 0 l0 -65 -100 0
-100 0 0 -265 0 -265 -85 0 -85 0 0 265 0 265 -105 0 -105 0 0 65 0 65 290 0
290 0 0 -65z m1458 3 l-3 -63 -152 -3 -153 -3 0 -54 0 -55 140 0 140 0 0 -65
0 -65 -140 0 -140 0 0 -80 0 -80 155 0 156 0 -3 -62 -3 -63 -237 -3 -238 -2 0
330 0 330 240 0 241 0 -3 -62z m646 -5 c45 -119 216 -586 216 -590 0 -1 -39
-3 -88 -3 l-87 0 -24 70 -24 70 -118 0 -118 0 -21 -57 c-11 -32 -23 -64 -25
-70 -3 -9 -30 -13 -90 -13 -47 0 -85 1 -85 3 0 2 54 149 120 327 66 178 120
325 120 327 0 2 45 3 99 3 l99 0 26 -67z m946 2 l0 -65 -105 0 -105 0 0 -265
0 -265 -85 0 -85 0 0 265 0 265 -100 0 -100 0 0 65 0 65 290 0 290 0 0 -65z"/>
<path d="M4142 1483 c-34 -7 -86 -64 -100 -110 -18 -61 -15 -171 7 -218 30
-65 62 -88 129 -92 73 -5 111 17 142 83 49 99 22 264 -50 316 -27 19 -90 29
-128 21z"/>
<path d="M3237 1473 c-10 -10 -8 -161 2 -167 19 -12 141 7 161 26 47 44 36
116 -20 135 -38 13 -133 17 -143 6z"/>
<path d="M9538 1310 l-36 -110 74 0 c41 0 74 3 74 7 0 13 -62 198 -69 205 -4
4 -23 -42 -43 -102z"/>
</g>
</svg>
